<svg version="1.1" xmlns="http://www.w3.org/2000/svg" xmlns:xlink="http://www.w3.org/1999/xlink" class="thumbnail-icon" viewBox="0 0.0000022649765014648438 200 200">
<path d="M88.84211,0.63159l20.42105,34.10526l16.84211,28.63158l1.05263,-0.21053l13.26316,-18.94737l17.68421,-25.26316l-8.21053,-5.26316l-9.26316,-4.84211l-9.68421,-3.78947l-10.10526,-2.73684l-10.31579,-1.68421l-10.52632,-0.63158l-10.52632,0.63158zM67.57895,113.89474l-4.63158,0.21053l-27.36842,-17.89474l-32.42105,-20.84211l1.68421,-6.31579l3.78947,-9.68421l4.84211,-9.26316l5.68421,-8.84211l6.52632,-8.21053l7.36842,-7.36842l8.21053,-6.52632l8.84211,-5.68421l9.26316,-4.84211l9.68421,-3.78947l4.21053,-1.05263l40.42105,67.78947l-28,41.47368zM197.68421,79.1579l0.84211,5.05263l-54.94737,-18.73684l19.78947,-28l6.31579,-9.05263l4.42105,4.63158l6.52632,8.21053l5.68421,8.84211l4.84211,9.26316l3.78947,9.68421zM127.36842,78.3158l4.21053,-1.26316l68.42105,23.36842l-0.42105,10.10526l-1.68421,10.31579l-2.73684,10.10526l-3.78947,9.68421l-4.84211,9.26316l-5.68421,8.84211l-6.52632,8.21053l-7.36842,7.36842l-1.89474,1.68421l-58.10526,-34.73684l-5.05263,-11.78947l-3.57895,-8.21053zM0,100l0.42105,-8.63158l49.68421,32l-29.89474,36.42105l-0.84211,-1.05263l-5.68421,-8.84211l-4.84211,-9.26316l-3.78947,-9.68421l-2.73684,-10.10526l-1.68421,-10.31579zM64.63158,128.84211l20.42105,-0.84211l7.78947,18.31579l-21.26316,49.47368l-2.31579,-0.63158l-9.68421,-3.78947l-9.26316,-4.84211l-8.84211,-5.68421l-8.21053,-6.52632l-3.15789,-3.15789zM86.31579,198.94737l18.10526,-41.89474l28,16.42105l19.36842,11.57895l-1.89474,1.26316l-9.26316,4.84211l-9.68421,3.78947l-10.10526,2.73684l-10.31579,1.68421l-10.52632,0.63158l-10.52632,-0.63158z" fill-rule="evenodd">
</path>
</svg>